# xmcd
#
# Track frame offsets:
#	150
#	14243
#	27116
#	41510
#	54724
#	69120
#	87106
#	97195
#	120419
#	129886
#	150499
#
# Disc length: 2290 seconds
#
# Revision: 1
# Processed by: cddbd v1.5.2PL0 Copyright (c) Steve Scherf et al.
# Submitted via: audiograbber 1.83.01
#
DISCID=8308f00b
DTITLE=John Denver - John Denver's Greatest Hits
DYEAR=1973
DGENRE=Traditional Country
TTITLE0=Take Me Home, Country Roads
TTITLE1=Follow Me
TTITLE2=Starwood In Aspen
TTITLE3=For Baby (For Bobbie)
TTITLE4=Rhymes And Reasons
TTITLE5=Leaving, On A Jet Plane
TTITLE6=The Eagle And The Hawk
TTITLE7=Sunshine On My Shoulders
TTITLE8=Goodbye Again
TTITLE9=Poems, Prayers And Promises
TTITLE10=Rocky Mountain High
EXTD=
EXTT0=
EXTT1=
EXTT2=
EXTT3=
EXTT4=
EXTT5=
EXTT6=
EXTT7=
EXTT8=
EXTT9=
EXTT10=
PLAYORDER=
